<svg aria-hidden="true" style="position: absolute; width: 0; height: 0; overflow: hidden;" version="1.1" xmlns="http://www.w3.org/2000/svg" xmlns:xlink="http://www.w3.org/1999/xlink">
  <symbol id="logo" viewBox="0 0 91 32">
    <title>rmtJob</title>
    <path fill="#fff" style="fill: var(--color1, #fff)" d="M33.264 21.333v-8.992h1.335v1.358h0.094c0.164-0.445 0.461-0.806 0.89-1.083s0.913-0.416 1.452-0.416c0.101 0 0.228 0.002 0.38 0.006s0.267 0.010 0.345 0.018v1.405c-0.047-0.012-0.154-0.029-0.322-0.053-0.164-0.027-0.338-0.041-0.521-0.041-0.437 0-0.827 0.092-1.171 0.275-0.34 0.18-0.609 0.429-0.808 0.749-0.195 0.316-0.293 0.677-0.293 1.083v5.69h-1.382zM39.398 21.333v-8.992h1.335v1.405h0.117c0.187-0.48 0.49-0.853 0.907-1.118 0.418-0.269 0.919-0.404 1.504-0.404 0.593 0 1.087 0.135 1.481 0.404 0.398 0.265 0.708 0.638 0.931 1.118h0.094c0.23-0.464 0.576-0.833 1.036-1.106 0.461-0.277 1.013-0.416 1.657-0.416 0.804 0 1.462 0.252 1.973 0.755 0.511 0.499 0.767 1.278 0.767 2.336v6.018h-1.382v-6.018c0-0.663-0.181-1.138-0.544-1.422s-0.79-0.427-1.282-0.427c-0.632 0-1.122 0.191-1.469 0.574-0.347 0.379-0.521 0.859-0.521 1.44v5.854h-1.405v-6.158c0-0.511-0.166-0.923-0.498-1.235-0.332-0.316-0.759-0.474-1.282-0.474-0.359 0-0.695 0.096-1.007 0.287-0.308 0.191-0.558 0.457-0.749 0.796-0.187 0.336-0.281 0.724-0.281 1.165v5.62h-1.382zM57.636 12.342v1.171h-4.66v-1.171h4.66zM54.334 10.187h1.382v8.57c0 0.39 0.057 0.683 0.17 0.878 0.117 0.191 0.265 0.32 0.445 0.386 0.183 0.062 0.377 0.094 0.58 0.094 0.152 0 0.277-0.008 0.375-0.023 0.098-0.020 0.176-0.035 0.234-0.047l0.281 1.241c-0.094 0.035-0.224 0.070-0.392 0.105-0.168 0.039-0.38 0.058-0.638 0.058-0.39 0-0.773-0.084-1.147-0.252-0.371-0.168-0.679-0.423-0.925-0.767-0.242-0.343-0.363-0.777-0.363-1.3v-8.945zM63.104 21.333h-4.496l1.99-11.989h4.361c1.218 0 2.232 0.248 3.044 0.743 0.816 0.492 1.391 1.198 1.727 2.119 0.34 0.917 0.404 2.010 0.193 3.278-0.203 1.225-0.611 2.275-1.224 3.149-0.609 0.874-1.389 1.543-2.342 2.008-0.952 0.46-2.037 0.691-3.255 0.691zM61.91 18.863h1.376c0.671 0 1.265-0.121 1.78-0.363 0.519-0.246 0.948-0.638 1.288-1.177 0.34-0.542 0.582-1.255 0.726-2.137 0.141-0.843 0.135-1.508-0.018-1.996-0.148-0.492-0.437-0.843-0.866-1.054-0.425-0.215-0.982-0.322-1.668-0.322h-1.44l-1.177 7.048zM74.829 21.503c-0.941 0-1.721-0.185-2.342-0.556-0.617-0.375-1.050-0.907-1.3-1.598-0.25-0.695-0.295-1.52-0.135-2.476 0.156-0.929 0.474-1.741 0.954-2.435 0.484-0.699 1.093-1.241 1.826-1.627 0.734-0.39 1.551-0.585 2.453-0.585 0.64 0 1.208 0.1 1.703 0.299s0.906 0.496 1.229 0.89c0.324 0.39 0.544 0.87 0.662 1.44s0.113 1.223-0.012 1.961l-0.111 0.714h-7.809l0.263-1.663h5.151c0.047-0.304 0.021-0.576-0.076-0.814s-0.256-0.423-0.474-0.556c-0.215-0.137-0.478-0.205-0.79-0.205-0.316 0-0.613 0.074-0.89 0.222-0.273 0.144-0.505 0.339-0.697 0.585s-0.316 0.523-0.375 0.831l-0.31 1.704c-0.062 0.378-0.045 0.702 0.053 0.972s0.265 0.476 0.503 0.62c0.238 0.14 0.544 0.211 0.919 0.211 0.25 0 0.484-0.033 0.702-0.099 0.219-0.070 0.414-0.174 0.585-0.31 0.176-0.14 0.318-0.31 0.427-0.509l2.611 0.076c-0.211 0.589-0.537 1.103-0.978 1.54-0.441 0.433-0.98 0.771-1.616 1.013-0.632 0.238-1.342 0.357-2.131 0.357zM90.562 12.342l-4.584 8.992h-3.278l-1.581-8.992h2.909l0.632 6.193h0.094l2.687-6.193h3.12z"></path>
    <path fill="#fff" style="fill: var(--color1, #fff)" opacity="0.8" d="M8.517 10.579c-0.020-1.099 0.876-1.995 1.975-1.975l8.391 0.156c1.71 0.032 2.545 2.101 1.335 3.31l-8.235 8.235c-1.21 1.209-3.279 0.375-3.31-1.335l-0.156-8.391z"></path>
    <path fill="#fff" style="fill: var(--color1, #fff)" d="M24.487 21.401c-0.104 0.893-0.808 1.597-1.701 1.701l-6.087 0.711c-1.826 0.213-2.896-1.997-1.596-3.298l6.797-6.797c1.3-1.3 3.511-0.23 3.298 1.596l-0.711 6.087z"></path>
  </symbol>

  <symbol id="pattern" viewBox="0 0 206 32">
    <path fill="#000" style="fill: var(--color1, #000)" opacity="0.04" d="M1.356-3.812h0.301v2.984h-0.301v-2.984zM5.144-3.687l0.261 0.149-1.507 2.585-0.261-0.149 1.507-2.585zM2.13-0.702l0.261 0.149-1.507 2.584-0.261-0.149 1.507-2.584zM8.764-3.195l0.151 0.258-2.61 1.492-0.151-0.258 2.61-1.492zM2.737 2.773l0.151 0.258-2.61 1.492-0.151-0.258 2.61-1.492zM12.056-2.469v0.298h-3.014v-0.298h3.014zM3.014 6.484v0.298h-3.014v-0.298h3.014zM14.967-1.723l-0.151 0.258-2.61-1.492 0.151-0.258 2.61 1.492zM2.911 10.214l-0.151 0.258-2.61-1.492 0.151-0.258 2.61 1.492zM17.46-1.102l-0.261 0.149-1.507-2.585 0.261-0.149 1.507 2.584zM2.391 13.819l-0.261 0.149-1.507-2.584 0.261-0.149 1.507 2.585zM5.75-0.211l0.151 0.258-2.61 1.492-0.151-0.258 2.61-1.492zM9.042 0.515v0.298h-3.014v-0.298h3.014zM11.953 1.261l-0.151 0.258-2.61-1.492 0.151-0.258 2.61 1.492zM14.446 1.882l-0.261 0.149-1.507-2.584 0.261-0.149 1.507 2.584zM16.727 2.157h-0.301v-2.984h0.301v2.984zM17.199 2.282l0.261 0.149-1.507 2.584-0.261-0.149 1.507-2.584zM6.028 3.5v0.298h-3.014v-0.298h3.014zM8.939 4.246l-0.151 0.258-2.61-1.492 0.151-0.258 2.61 1.492zM11.432 4.866l-0.261 0.149-1.507-2.584 0.261-0.149 1.507 2.584zM13.713 5.141h-0.301v-2.984h0.301v2.984zM14.185 5.266l0.261 0.149-1.507 2.585-0.261-0.149 1.507-2.584zM17.806 5.758l0.151 0.258-2.61 1.492-0.151-0.258 2.61-1.492zM5.925 7.23l-0.151 0.258-2.61-1.492 0.151-0.258 2.61 1.492zM8.419 7.851l-0.261 0.149-1.507-2.584 0.261-0.149 1.507 2.584zM10.699 8.125h-0.301v-2.984h0.301v2.984zM11.172 8.251l0.261 0.149-1.507 2.585-0.261-0.149 1.507-2.585zM14.792 8.742l0.151 0.258-2.61 1.492-0.151-0.258 2.61-1.492zM18.083 9.468v0.298h-3.014v-0.298h3.014zM5.405 10.835l-0.261 0.149-1.507-2.585 0.261-0.149 1.507 2.585zM7.685 11.11h-0.301v-2.984h0.301v2.984zM8.158 11.235l0.261 0.149-1.507 2.584-0.261-0.149 1.507-2.585zM11.778 11.726l0.151 0.258-2.61 1.492-0.151-0.258 2.61-1.492zM15.069 12.453v0.298h-3.014v-0.298h3.014zM17.981 13.199l-0.151 0.258-2.61-1.492 0.151-0.258 2.61 1.492zM4.671 14.094h-0.301v-2.984h0.301v2.984z"></path>
    <path fill="#000" style="fill: var(--color1, #000)" opacity="0.04" d="M1.356 14.094h0.301v2.984h-0.301v-2.984zM5.144 14.219l0.261 0.149-1.507 2.585-0.261-0.149 1.507-2.584zM2.13 17.204l0.261 0.149-1.507 2.584-0.261-0.149 1.507-2.584zM8.764 14.711l0.151 0.258-2.61 1.492-0.151-0.258 2.61-1.492zM2.737 20.68l0.151 0.258-2.61 1.492-0.151-0.258 2.61-1.492zM12.056 15.437v0.298h-3.014v-0.298h3.014zM3.014 24.39v0.298h-3.014v-0.298h3.014zM14.967 16.183l-0.151 0.258-2.61-1.492 0.151-0.258 2.61 1.492zM2.911 28.12l-0.151 0.258-2.61-1.492 0.151-0.258 2.61 1.492zM17.46 16.804l-0.261 0.149-1.507-2.585 0.261-0.149 1.507 2.584zM2.391 31.726l-0.261 0.149-1.507-2.584 0.261-0.149 1.507 2.585zM5.75 17.695l0.151 0.258-2.61 1.492-0.151-0.258 2.61-1.492zM9.042 18.421v0.298h-3.014v-0.298h3.014zM11.953 19.167l-0.151 0.258-2.61-1.492 0.151-0.258 2.61 1.492zM14.446 19.788l-0.261 0.149-1.507-2.584 0.261-0.149 1.507 2.584zM16.727 20.063h-0.301v-2.984h0.301v2.984zM17.199 20.188l0.261 0.149-1.507 2.584-0.261-0.149 1.507-2.584zM6.028 21.406v0.298h-3.014v-0.298h3.014zM8.939 22.152l-0.151 0.258-2.61-1.492 0.151-0.258 2.61 1.492zM11.432 22.772l-0.261 0.149-1.507-2.584 0.261-0.149 1.507 2.584zM13.713 23.047h-0.301v-2.984h0.301v2.984zM14.185 23.172l0.261 0.149-1.507 2.585-0.261-0.149 1.507-2.584zM17.806 23.664l0.151 0.258-2.61 1.492-0.151-0.258 2.61-1.492zM5.925 25.136l-0.151 0.258-2.61-1.492 0.151-0.258 2.61 1.492zM8.419 25.757l-0.261 0.149-1.507-2.585 0.261-0.149 1.507 2.584zM10.699 26.031h-0.301v-2.984h0.301v2.984zM11.172 26.157l0.261 0.149-1.507 2.584-0.261-0.149 1.507-2.584zM14.792 26.648l0.151 0.258-2.61 1.492-0.151-0.258 2.61-1.492zM18.083 27.374v0.298h-3.014v-0.298h3.014zM5.405 28.741l-0.261 0.149-1.507-2.584 0.261-0.149 1.507 2.584zM7.685 29.016h-0.301v-2.984h0.301v2.984zM8.158 29.141l0.261 0.149-1.507 2.584-0.261-0.149 1.507-2.585zM11.778 29.633l0.151 0.258-2.61 1.492-0.151-0.258 2.61-1.492zM15.069 30.359v0.298h-3.014v-0.298h3.014zM17.981 31.105l-0.151 0.258-2.61-1.492 0.151-0.258 2.61 1.492zM4.671 32h-0.301v-2.984h0.301v2.984z"></path>
    <path fill="#000" style="fill: var(--color1, #000)" opacity="0.04" d="M37.523-3.812h0.301v2.984h-0.301v-2.984zM41.31-3.687l0.261 0.149-1.507 2.584-0.261-0.149 1.507-2.585zM38.296-0.702l0.261 0.149-1.507 2.585-0.261-0.149 1.507-2.584zM44.931-3.195l0.151 0.258-2.61 1.492-0.151-0.258 2.61-1.492zM38.903 2.773l0.151 0.258-2.61 1.492-0.151-0.258 2.61-1.492zM48.222-2.469v0.298h-3.014v-0.298h3.014zM39.18 6.484v0.298h-3.014v-0.298h3.014zM51.133-1.723l-0.151 0.258-2.61-1.492 0.151-0.258 2.61 1.492zM39.078 10.214l-0.151 0.258-2.61-1.492 0.151-0.258 2.61 1.492zM53.627-1.102l-0.261 0.149-1.507-2.584 0.261-0.149 1.507 2.584zM38.557 13.819l-0.261 0.149-1.507-2.584 0.261-0.149 1.507 2.585zM41.917-0.211l0.151 0.258-2.61 1.492-0.151-0.258 2.61-1.492zM45.208 0.515v0.298h-3.014v-0.298h3.014zM48.12 1.261l-0.151 0.258-2.61-1.492 0.151-0.258 2.61 1.492zM50.613 1.882l-0.261 0.149-1.507-2.585 0.261-0.149 1.507 2.584zM52.893 2.157h-0.301v-2.984h0.301v2.984zM53.366 2.282l0.261 0.149-1.507 2.584-0.261-0.149 1.507-2.584zM42.194 3.5v0.298h-3.014v-0.298h3.014zM45.106 4.246l-0.151 0.258-2.61-1.492 0.151-0.258 2.61 1.492zM47.599 4.866l-0.261 0.149-1.507-2.584 0.261-0.149 1.507 2.584zM49.88 5.141h-0.301v-2.984h0.301v2.984zM50.352 5.266l0.261 0.149-1.507 2.585-0.261-0.149 1.507-2.584zM53.972 5.758l0.151 0.258-2.61 1.492-0.151-0.258 2.61-1.492zM42.092 7.23l-0.151 0.258-2.61-1.492 0.151-0.258 2.61 1.492zM44.585 7.851l-0.261 0.149-1.507-2.584 0.261-0.149 1.507 2.584zM46.866 8.125h-0.301v-2.984h0.301v2.984zM47.338 8.251l0.261 0.149-1.507 2.585-0.261-0.149 1.507-2.585zM50.959 8.742l0.151 0.258-2.61 1.492-0.151-0.258 2.61-1.492zM54.25 9.468v0.298h-3.014v-0.298h3.014zM41.571 10.835l-0.261 0.149-1.507-2.585 0.261-0.149 1.507 2.585zM43.852 11.11h-0.301v-2.984h0.301v2.984zM44.324 11.235l0.261 0.149-1.507 2.584-0.261-0.149 1.507-2.585zM47.945 11.726l0.151 0.258-2.61 1.492-0.151-0.258 2.61-1.492zM51.236 12.453v0.298h-3.014v-0.298h3.014zM54.147 13.199l-0.151 0.258-2.61-1.492 0.151-0.258 2.61 1.492zM40.838 14.094h-0.301v-2.984h0.301v2.984z"></path>
    <path fill="#000" style="fill: var(--color1, #000)" opacity="0.04" d="M37.523 14.094h0.301v2.984h-0.301v-2.984zM41.31 14.219l0.261 0.149-1.507 2.585-0.261-0.149 1.507-2.584zM38.296 17.204l0.261 0.149-1.507 2.584-0.261-0.149 1.507-2.584zM44.931 14.711l0.151 0.258-2.61 1.492-0.151-0.258 2.61-1.492zM38.903 20.68l0.151 0.258-2.61 1.492-0.151-0.258 2.61-1.492zM48.222 15.437v0.298h-3.014v-0.298h3.014zM39.18 24.39v0.298h-3.014v-0.298h3.014zM51.133 16.183l-0.151 0.258-2.61-1.492 0.151-0.258 2.61 1.492zM39.078 28.12l-0.151 0.258-2.61-1.492 0.151-0.258 2.61 1.492zM53.627 16.804l-0.261 0.149-1.507-2.585 0.261-0.149 1.507 2.584zM38.557 31.726l-0.261 0.149-1.507-2.584 0.261-0.149 1.507 2.585zM41.917 17.695l0.151 0.258-2.61 1.492-0.151-0.258 2.61-1.492zM45.208 18.421v0.298h-3.014v-0.298h3.014zM48.12 19.167l-0.151 0.258-2.61-1.492 0.151-0.258 2.61 1.492zM50.613 19.788l-0.261 0.149-1.507-2.584 0.261-0.149 1.507 2.584zM52.893 20.063h-0.301v-2.984h0.301v2.984zM53.366 20.188l0.261 0.149-1.507 2.584-0.261-0.149 1.507-2.584zM42.194 21.406v0.298h-3.014v-0.298h3.014zM45.106 22.152l-0.151 0.258-2.61-1.492 0.151-0.258 2.61 1.492zM47.599 22.772l-0.261 0.149-1.507-2.584 0.261-0.149 1.507 2.584zM49.88 23.047h-0.301v-2.984h0.301v2.984zM50.352 23.172l0.261 0.149-1.507 2.585-0.261-0.149 1.507-2.584zM53.972 23.664l0.151 0.258-2.61 1.492-0.151-0.258 2.61-1.492zM42.092 25.136l-0.151 0.258-2.61-1.492 0.151-0.258 2.61 1.492zM44.585 25.757l-0.261 0.149-1.507-2.585 0.261-0.149 1.507 2.584zM46.866 26.031h-0.301v-2.984h0.301v2.984zM47.338 26.157l0.261 0.149-1.507 2.584-0.261-0.149 1.507-2.584zM50.959 26.648l0.151 0.258-2.61 1.492-0.151-0.258 2.61-1.492zM54.25 27.374v0.298h-3.014v-0.298h3.014zM41.571 28.741l-0.261 0.149-1.507-2.584 0.261-0.149 1.507 2.584zM43.852 29.016h-0.301v-2.984h0.301v2.984zM44.324 29.141l0.261 0.149-1.507 2.584-0.261-0.149 1.507-2.585zM47.945 29.633l0.151 0.258-2.61 1.492-0.151-0.258 2.61-1.492zM51.236 30.359v0.298h-3.014v-0.298h3.014zM54.147 31.105l-0.151 0.258-2.61-1.492 0.151-0.258 2.61 1.492zM40.838 32h-0.301v-2.984h0.301v2.984z"></path>
    <path fill="#000" style="fill: var(--color1, #000)" opacity="0.04" d="M73.689-3.812h0.301v2.984h-0.301v-2.984zM77.477-3.687l0.261 0.149-1.507 2.584-0.261-0.149 1.507-2.585zM74.463-0.702l0.261 0.149-1.507 2.585-0.261-0.149 1.507-2.584zM81.097-3.195l0.151 0.258-2.61 1.492-0.151-0.258 2.61-1.492zM75.070 2.773l0.151 0.258-2.61 1.492-0.151-0.258 2.61-1.492zM84.388-2.469v0.298h-3.014v-0.298h3.014zM75.347 6.484v0.298h-3.014v-0.298h3.014zM87.3-1.723l-0.151 0.258-2.61-1.492 0.151-0.258 2.61 1.492zM75.244 10.214l-0.151 0.258-2.61-1.492 0.151-0.258 2.61 1.492zM89.793-1.102l-0.261 0.149-1.507-2.584 0.261-0.149 1.507 2.584zM74.724 13.819l-0.261 0.149-1.507-2.584 0.261-0.149 1.507 2.585zM78.083-0.211l0.151 0.258-2.61 1.492-0.151-0.258 2.61-1.492zM81.374 0.515v0.298h-3.014v-0.298h3.014zM84.286 1.261l-0.151 0.258-2.61-1.492 0.151-0.258 2.61 1.492zM86.779 1.882l-0.261 0.149-1.507-2.585 0.261-0.149 1.507 2.584zM89.060 2.157h-0.301v-2.984h0.301v2.984zM89.532 2.282l0.261 0.149-1.507 2.584-0.261-0.149 1.507-2.584zM78.361 3.5v0.298h-3.014v-0.298h3.014zM81.272 4.246l-0.151 0.258-2.61-1.492 0.151-0.258 2.61 1.492zM83.765 4.866l-0.261 0.149-1.507-2.584 0.261-0.149 1.507 2.584zM86.046 5.141h-0.301v-2.984h0.301v2.984zM86.518 5.266l0.261 0.149-1.507 2.585-0.261-0.149 1.507-2.584zM90.139 5.758l0.151 0.258-2.61 1.492-0.151-0.258 2.61-1.492zM78.258 7.23l-0.151 0.258-2.61-1.492 0.151-0.258 2.61 1.492zM80.752 7.851l-0.261 0.149-1.507-2.584 0.261-0.149 1.507 2.584zM83.032 8.125h-0.301v-2.984h0.301v2.984zM83.504 8.251l0.261 0.149-1.507 2.585-0.261-0.149 1.507-2.585zM87.125 8.742l0.151 0.258-2.61 1.492-0.151-0.258 2.61-1.492zM90.416 9.468v0.298h-3.014v-0.298h3.014zM77.738 10.835l-0.261 0.149-1.507-2.585 0.261-0.149 1.507 2.585zM80.018 11.11h-0.301v-2.984h0.301v2.984zM80.491 11.235l0.261 0.149-1.507 2.584-0.261-0.149 1.507-2.585zM84.111 11.726l0.151 0.258-2.61 1.492-0.151-0.258 2.61-1.492zM87.402 12.453v0.298h-3.014v-0.298h3.014zM90.314 13.199l-0.151 0.258-2.61-1.492 0.151-0.258 2.61 1.492zM77.004 14.094h-0.301v-2.984h0.301v2.984z"></path>
    <path fill="#000" style="fill: var(--color1, #000)" opacity="0.04" d="M73.689 14.094h0.301v2.984h-0.301v-2.984zM77.477 14.219l0.261 0.149-1.507 2.585-0.261-0.149 1.507-2.584zM74.463 17.204l0.261 0.149-1.507 2.584-0.261-0.149 1.507-2.584zM81.097 14.711l0.151 0.258-2.61 1.492-0.151-0.258 2.61-1.492zM75.070 20.68l0.151 0.258-2.61 1.492-0.151-0.258 2.61-1.492zM84.388 15.437v0.298h-3.014v-0.298h3.014zM75.347 24.39v0.298h-3.014v-0.298h3.014zM87.3 16.183l-0.151 0.258-2.61-1.492 0.151-0.258 2.61 1.492zM75.244 28.12l-0.151 0.258-2.61-1.492 0.151-0.258 2.61 1.492zM89.793 16.804l-0.261 0.149-1.507-2.585 0.261-0.149 1.507 2.584zM74.724 31.726l-0.261 0.149-1.507-2.584 0.261-0.149 1.507 2.585zM78.083 17.695l0.151 0.258-2.61 1.492-0.151-0.258 2.61-1.492zM81.374 18.421v0.298h-3.014v-0.298h3.014zM84.286 19.167l-0.151 0.258-2.61-1.492 0.151-0.258 2.61 1.492zM86.779 19.788l-0.261 0.149-1.507-2.584 0.261-0.149 1.507 2.584zM89.060 20.063h-0.301v-2.984h0.301v2.984zM89.532 20.188l0.261 0.149-1.507 2.584-0.261-0.149 1.507-2.584zM78.361 21.406v0.298h-3.014v-0.298h3.014zM81.272 22.152l-0.151 0.258-2.61-1.492 0.151-0.258 2.61 1.492zM83.765 22.772l-0.261 0.149-1.507-2.584 0.261-0.149 1.507 2.584zM86.046 23.047h-0.301v-2.984h0.301v2.984zM86.518 23.172l0.261 0.149-1.507 2.585-0.261-0.149 1.507-2.584zM90.139 23.664l0.151 0.258-2.61 1.492-0.151-0.258 2.61-1.492zM78.258 25.136l-0.151 0.258-2.61-1.492 0.151-0.258 2.61 1.492zM80.752 25.757l-0.261 0.149-1.507-2.585 0.261-0.149 1.507 2.584zM83.032 26.031h-0.301v-2.984h0.301v2.984zM83.504 26.157l0.261 0.149-1.507 2.584-0.261-0.149 1.507-2.584zM87.125 26.648l0.151 0.258-2.61 1.492-0.151-0.258 2.61-1.492zM90.416 27.374v0.298h-3.014v-0.298h3.014zM77.738 28.741l-0.261 0.149-1.507-2.584 0.261-0.149 1.507 2.584zM80.018 29.016h-0.301v-2.984h0.301v2.984zM80.491 29.141l0.261 0.149-1.507 2.584-0.261-0.149 1.507-2.585zM84.111 29.633l0.151 0.258-2.61 1.492-0.151-0.258 2.61-1.492zM87.402 30.359v0.298h-3.014v-0.298h3.014zM90.314 31.105l-0.151 0.258-2.61-1.492 0.151-0.258 2.61 1.492zM77.004 32h-0.301v-2.984h0.301v2.984z"></path>
    <path fill="#000" style="fill: var(--color1, #000)" opacity="0.04" d="M109.856-3.812h0.302v2.984h-0.302v-2.984zM113.643-3.687l0.261 0.149-1.507 2.584-0.261-0.149 1.507-2.585zM110.629-0.702l0.262 0.149-1.508 2.585-0.261-0.149 1.507-2.584zM117.264-3.195l0.15 0.258-2.609 1.492-0.151-0.258 2.61-1.492zM111.235 2.773l0.151 0.258-2.61 1.492-0.15-0.258 2.609-1.492zM120.555-2.469v0.298h-3.014v-0.298h3.014zM111.514 6.484v0.298h-3.014v-0.298h3.014zM123.466-1.723l-0.15 0.258-2.61-1.492 0.15-0.258 2.61 1.492zM111.41 10.214l-0.15 0.258-2.61-1.492 0.151-0.258 2.609 1.492zM125.96-1.102l-0.261 0.149-1.508-2.584 0.262-0.149 1.507 2.584zM110.891 13.819l-0.262 0.149-1.507-2.584 0.261-0.149 1.508 2.585zM114.25-0.211l0.15 0.258-2.609 1.492-0.15-0.258 2.609-1.492zM117.541 0.515v0.298h-3.014v-0.298h3.014zM120.452 1.261l-0.15 0.258-2.61-1.492 0.151-0.258 2.609 1.492zM122.945 1.882l-0.261 0.149-1.507-2.585 0.261-0.149 1.507 2.584zM125.226 2.157h-0.302v-2.984h0.302v2.984zM125.699 2.282l0.261 0.149-1.507 2.584-0.262-0.149 1.508-2.584zM114.527 3.5v0.298h-3.013v-0.298h3.013zM117.439 4.246l-0.151 0.258-2.609-1.492 0.15-0.258 2.61 1.492zM119.932 4.866l-0.262 0.149-1.507-2.584 0.261-0.149 1.508 2.584zM122.212 5.141h-0.301v-2.984h0.301v2.984zM122.685 5.266l0.261 0.149-1.507 2.585-0.261-0.149 1.507-2.584zM126.305 5.758l0.15 0.258-2.609 1.492-0.151-0.258 2.61-1.492zM114.425 7.23l-0.15 0.258-2.61-1.492 0.15-0.258 2.61 1.492zM116.918 7.851l-0.261 0.149-1.508-2.584 0.262-0.149 1.507 2.584zM119.199 8.125h-0.302v-2.984h0.302v2.984zM119.67 8.251l0.262 0.149-1.508 2.585-0.261-0.149 1.507-2.585zM123.291 8.742l0.15 0.258-2.609 1.492-0.15-0.258 2.609-1.492zM126.583 9.468v0.298h-3.014v-0.298h3.014zM113.904 10.835l-0.261 0.149-1.507-2.585 0.261-0.149 1.507 2.585zM116.185 11.11h-0.302v-2.984h0.302v2.984zM116.657 11.235l0.261 0.149-1.507 2.584-0.262-0.149 1.508-2.585zM120.277 11.726l0.151 0.258-2.61 1.492-0.15-0.258 2.609-1.492zM123.568 12.453v0.298h-3.013v-0.298h3.013zM126.481 13.199l-0.151 0.258-2.609-1.492 0.15-0.258 2.61 1.492zM113.17 14.094h-0.301v-2.984h0.301v2.984z"></path>
    <path fill="#000" style="fill: var(--color1, #000)" opacity="0.04" d="M109.856 14.094h0.302v2.984h-0.302v-2.984zM113.643 14.219l0.261 0.149-1.507 2.585-0.261-0.149 1.507-2.584zM110.629 17.204l0.262 0.149-1.508 2.584-0.261-0.149 1.507-2.584zM117.264 14.711l0.15 0.258-2.609 1.492-0.151-0.258 2.61-1.492zM111.235 20.68l0.151 0.258-2.61 1.492-0.15-0.258 2.609-1.492zM120.555 15.437v0.298h-3.014v-0.298h3.014zM111.514 24.39v0.298h-3.014v-0.298h3.014zM123.466 16.183l-0.15 0.258-2.61-1.492 0.15-0.258 2.61 1.492zM111.41 28.12l-0.15 0.258-2.61-1.492 0.151-0.258 2.609 1.492zM125.96 16.804l-0.261 0.149-1.508-2.585 0.262-0.149 1.507 2.584zM110.891 31.726l-0.262 0.149-1.507-2.584 0.261-0.149 1.508 2.585zM114.25 17.695l0.15 0.258-2.609 1.492-0.15-0.258 2.609-1.492zM117.541 18.421v0.298h-3.014v-0.298h3.014zM120.452 19.167l-0.15 0.258-2.61-1.492 0.151-0.258 2.609 1.492zM122.945 19.788l-0.261 0.149-1.507-2.584 0.261-0.149 1.507 2.584zM125.226 20.063h-0.302v-2.984h0.302v2.984zM125.699 20.188l0.261 0.149-1.507 2.584-0.262-0.149 1.508-2.584zM114.527 21.406v0.298h-3.013v-0.298h3.013zM117.439 22.152l-0.151 0.258-2.609-1.492 0.15-0.258 2.61 1.492zM119.932 22.772l-0.262 0.149-1.507-2.584 0.261-0.149 1.508 2.584zM122.212 23.047h-0.301v-2.984h0.301v2.984zM122.685 23.172l0.261 0.149-1.507 2.585-0.261-0.149 1.507-2.584zM126.305 23.664l0.15 0.258-2.609 1.492-0.151-0.258 2.61-1.492zM114.425 25.136l-0.15 0.258-2.61-1.492 0.15-0.258 2.61 1.492zM116.918 25.757l-0.261 0.149-1.508-2.585 0.262-0.149 1.507 2.584zM119.199 26.031h-0.302v-2.984h0.302v2.984zM119.67 26.157l0.262 0.149-1.508 2.584-0.261-0.149 1.507-2.584zM123.291 26.648l0.15 0.258-2.609 1.492-0.15-0.258 2.609-1.492zM126.583 27.374v0.298h-3.014v-0.298h3.014zM113.904 28.741l-0.261 0.149-1.507-2.584 0.261-0.149 1.507 2.584zM116.185 29.016h-0.302v-2.984h0.302v2.984zM116.657 29.141l0.261 0.149-1.507 2.584-0.262-0.149 1.508-2.585zM120.277 29.633l0.151 0.258-2.61 1.492-0.15-0.258 2.609-1.492zM123.568 30.359v0.298h-3.013v-0.298h3.013zM126.481 31.105l-0.151 0.258-2.609-1.492 0.15-0.258 2.61 1.492zM113.17 32h-0.301v-2.984h0.301v2.984z"></path>
    <path fill="#000" style="fill: var(--color1, #000)" opacity="0.04" d="M146.022-3.812h0.302v2.984h-0.302v-2.984zM149.809-3.687l0.261 0.149-1.507 2.584-0.261-0.149 1.507-2.585zM146.795-0.702l0.262 0.149-1.508 2.585-0.261-0.149 1.507-2.584zM153.43-3.195l0.15 0.258-2.609 1.492-0.151-0.258 2.61-1.492zM147.402 2.773l0.151 0.258-2.61 1.492-0.15-0.258 2.609-1.492zM156.722-2.469v0.298h-3.014v-0.298h3.014zM147.68 6.484v0.298h-3.014v-0.298h3.014zM159.633-1.723l-0.15 0.258-2.61-1.492 0.15-0.258 2.61 1.492zM147.577 10.214l-0.15 0.258-2.61-1.492 0.151-0.258 2.609 1.492zM162.126-1.102l-0.261 0.149-1.508-2.584 0.262-0.149 1.507 2.584zM147.057 13.819l-0.262 0.149-1.507-2.584 0.261-0.149 1.508 2.585zM150.416-0.211l0.15 0.258-2.609 1.492-0.15-0.258 2.609-1.492zM153.707 0.515v0.298h-3.014v-0.298h3.014zM156.619 1.261l-0.15 0.258-2.61-1.492 0.151-0.258 2.609 1.492zM159.112 1.882l-0.261 0.149-1.507-2.585 0.261-0.149 1.507 2.584zM161.393 2.157h-0.302v-2.984h0.302v2.984zM161.865 2.282l0.261 0.149-1.507 2.584-0.262-0.149 1.508-2.584zM150.693 3.5v0.298h-3.013v-0.298h3.013zM153.605 4.246l-0.151 0.258-2.609-1.492 0.15-0.258 2.61 1.492zM156.099 4.866l-0.262 0.149-1.507-2.584 0.261-0.149 1.508 2.584zM158.379 5.141h-0.301v-2.984h0.301v2.984zM158.851 5.266l0.261 0.149-1.507 2.585-0.261-0.149 1.507-2.584zM162.472 5.758l0.15 0.258-2.609 1.492-0.151-0.258 2.61-1.492zM150.591 7.23l-0.15 0.258-2.61-1.492 0.15-0.258 2.61 1.492zM153.085 7.851l-0.261 0.149-1.508-2.584 0.262-0.149 1.507 2.584zM155.365 8.125h-0.302v-2.984h0.302v2.984zM155.837 8.251l0.262 0.149-1.508 2.585-0.261-0.149 1.507-2.585zM159.458 8.742l0.15 0.258-2.609 1.492-0.15-0.258 2.609-1.492zM162.749 9.468v0.298h-3.014v-0.298h3.014zM150.070 10.835l-0.261 0.149-1.507-2.585 0.261-0.149 1.507 2.585zM152.351 11.11h-0.302v-2.984h0.302v2.984zM152.824 11.235l0.261 0.149-1.507 2.584-0.262-0.149 1.508-2.585zM156.444 11.726l0.151 0.258-2.61 1.492-0.15-0.258 2.609-1.492zM159.735 12.453v0.298h-3.013v-0.298h3.013zM162.647 13.199l-0.151 0.258-2.609-1.492 0.15-0.258 2.61 1.492zM149.337 14.094h-0.301v-2.984h0.301v2.984z"></path>
    <path fill="#000" style="fill: var(--color1, #000)" opacity="0.04" d="M146.022 14.094h0.302v2.984h-0.302v-2.984zM149.809 14.219l0.261 0.149-1.507 2.585-0.261-0.149 1.507-2.584zM146.795 17.204l0.262 0.149-1.508 2.584-0.261-0.149 1.507-2.584zM153.43 14.711l0.15 0.258-2.609 1.492-0.151-0.258 2.61-1.492zM147.402 20.68l0.151 0.258-2.61 1.492-0.15-0.258 2.609-1.492zM156.722 15.437v0.298h-3.014v-0.298h3.014zM147.68 24.39v0.298h-3.014v-0.298h3.014zM159.633 16.183l-0.15 0.258-2.61-1.492 0.15-0.258 2.61 1.492zM147.577 28.12l-0.15 0.258-2.61-1.492 0.151-0.258 2.609 1.492zM162.126 16.804l-0.261 0.149-1.508-2.585 0.262-0.149 1.507 2.584zM147.057 31.726l-0.262 0.149-1.507-2.584 0.261-0.149 1.508 2.585zM150.416 17.695l0.15 0.258-2.609 1.492-0.15-0.258 2.609-1.492zM153.707 18.421v0.298h-3.014v-0.298h3.014zM156.619 19.167l-0.15 0.258-2.61-1.492 0.151-0.258 2.609 1.492zM159.112 19.788l-0.261 0.149-1.507-2.584 0.261-0.149 1.507 2.584zM161.393 20.063h-0.302v-2.984h0.302v2.984zM161.865 20.188l0.261 0.149-1.507 2.584-0.262-0.149 1.508-2.584zM150.693 21.406v0.298h-3.013v-0.298h3.013zM153.605 22.152l-0.151 0.258-2.609-1.492 0.15-0.258 2.61 1.492zM156.099 22.772l-0.262 0.149-1.507-2.584 0.261-0.149 1.508 2.584zM158.379 23.047h-0.301v-2.984h0.301v2.984zM158.851 23.172l0.261 0.149-1.507 2.585-0.261-0.149 1.507-2.584zM162.472 23.664l0.15 0.258-2.609 1.492-0.151-0.258 2.61-1.492zM150.591 25.136l-0.15 0.258-2.61-1.492 0.15-0.258 2.61 1.492zM153.085 25.757l-0.261 0.149-1.508-2.585 0.262-0.149 1.507 2.584zM155.365 26.031h-0.302v-2.984h0.302v2.984zM155.837 26.157l0.262 0.149-1.508 2.584-0.261-0.149 1.507-2.584zM159.458 26.648l0.15 0.258-2.609 1.492-0.15-0.258 2.609-1.492zM162.749 27.374v0.298h-3.014v-0.298h3.014zM150.070 28.741l-0.261 0.149-1.507-2.584 0.261-0.149 1.507 2.584zM152.351 29.016h-0.302v-2.984h0.302v2.984zM152.824 29.141l0.261 0.149-1.507 2.584-0.262-0.149 1.508-2.585zM156.444 29.633l0.151 0.258-2.61 1.492-0.15-0.258 2.609-1.492zM159.735 30.359v0.298h-3.013v-0.298h3.013zM162.647 31.105l-0.151 0.258-2.609-1.492 0.15-0.258 2.61 1.492zM149.337 32h-0.301v-2.984h0.301v2.984z"></path>
    <path fill="#000" style="fill: var(--color1, #000)" opacity="0.04" d="M19.439-3.812h0.301v2.984h-0.301v-2.984zM23.227-3.687l0.261 0.149-1.507 2.584-0.261-0.149 1.507-2.585zM20.213-0.702l0.261 0.149-1.507 2.585-0.261-0.149 1.507-2.584zM26.848-3.195l0.151 0.258-2.61 1.492-0.151-0.258 2.61-1.492zM20.82 2.773l0.151 0.258-2.61 1.492-0.151-0.258 2.61-1.492zM30.139-2.469v0.298h-3.014v-0.298h3.014zM21.097 6.484v0.298h-3.014v-0.298h3.014zM33.050-1.723l-0.151 0.258-2.61-1.492 0.151-0.258 2.61 1.492zM20.995 10.214l-0.151 0.258-2.61-1.492 0.151-0.258 2.61 1.492zM35.544-1.102l-0.261 0.149-1.507-2.584 0.261-0.149 1.507 2.584zM20.474 13.819l-0.261 0.149-1.507-2.584 0.261-0.149 1.507 2.585zM23.834-0.211l0.151 0.258-2.61 1.492-0.151-0.258 2.61-1.492zM27.125 0.515v0.298h-3.014v-0.298h3.014zM30.036 1.261l-0.151 0.258-2.61-1.492 0.151-0.258 2.61 1.492zM32.53 1.882l-0.261 0.149-1.507-2.585 0.261-0.149 1.507 2.584zM34.81 2.157h-0.301v-2.984h0.301v2.984zM35.282 2.282l0.261 0.149-1.507 2.584-0.261-0.149 1.507-2.584zM24.111 3.5v0.298h-3.014v-0.298h3.014zM27.022 4.246l-0.151 0.258-2.61-1.492 0.151-0.258 2.61 1.492zM29.516 4.866l-0.261 0.149-1.507-2.584 0.261-0.149 1.507 2.584zM31.796 5.141h-0.301v-2.984h0.301v2.984zM32.269 5.266l0.261 0.149-1.507 2.585-0.261-0.149 1.507-2.584zM35.889 5.758l0.151 0.258-2.61 1.492-0.151-0.258 2.61-1.492zM24.009 7.23l-0.151 0.258-2.61-1.492 0.151-0.258 2.61 1.492zM26.502 7.851l-0.261 0.149-1.507-2.584 0.261-0.149 1.507 2.584zM28.782 8.125h-0.301v-2.984h0.301v2.984zM29.255 8.251l0.261 0.149-1.507 2.585-0.261-0.149 1.507-2.585zM32.875 8.742l0.151 0.258-2.61 1.492-0.151-0.258 2.61-1.492zM36.166 9.468v0.298h-3.014v-0.298h3.014zM23.488 10.835l-0.261 0.149-1.507-2.585 0.261-0.149 1.507 2.585zM25.769 11.11h-0.301v-2.984h0.301v2.984zM26.241 11.235l0.261 0.149-1.507 2.584-0.261-0.149 1.507-2.585zM29.861 11.726l0.151 0.258-2.61 1.492-0.151-0.258 2.61-1.492zM33.153 12.453v0.298h-3.014v-0.298h3.014zM36.064 13.199l-0.151 0.258-2.61-1.492 0.151-0.258 2.61 1.492zM22.755 14.094h-0.301v-2.984h0.301v2.984z"></path>
    <path fill="#000" style="fill: var(--color1, #000)" opacity="0.04" d="M19.439 14.094h0.301v2.984h-0.301v-2.984zM23.227 14.219l0.261 0.149-1.507 2.585-0.261-0.149 1.507-2.584zM20.213 17.204l0.261 0.149-1.507 2.584-0.261-0.149 1.507-2.584zM26.848 14.711l0.151 0.258-2.61 1.492-0.151-0.258 2.61-1.492zM20.82 20.68l0.151 0.258-2.61 1.492-0.151-0.258 2.61-1.492zM30.139 15.437v0.298h-3.014v-0.298h3.014zM21.097 24.39v0.298h-3.014v-0.298h3.014zM33.050 16.183l-0.151 0.258-2.61-1.492 0.151-0.258 2.61 1.492zM20.995 28.12l-0.151 0.258-2.61-1.492 0.151-0.258 2.61 1.492zM35.544 16.804l-0.261 0.149-1.507-2.585 0.261-0.149 1.507 2.584zM20.474 31.726l-0.261 0.149-1.507-2.584 0.261-0.149 1.507 2.585zM23.834 17.695l0.151 0.258-2.61 1.492-0.151-0.258 2.61-1.492zM27.125 18.421v0.298h-3.014v-0.298h3.014zM30.036 19.167l-0.151 0.258-2.61-1.492 0.151-0.258 2.61 1.492zM32.53 19.788l-0.261 0.149-1.507-2.584 0.261-0.149 1.507 2.584zM34.81 20.063h-0.301v-2.984h0.301v2.984zM35.282 20.188l0.261 0.149-1.507 2.584-0.261-0.149 1.507-2.584zM24.111 21.406v0.298h-3.014v-0.298h3.014zM27.022 22.152l-0.151 0.258-2.61-1.492 0.151-0.258 2.61 1.492zM29.516 22.772l-0.261 0.149-1.507-2.584 0.261-0.149 1.507 2.584zM31.796 23.047h-0.301v-2.984h0.301v2.984zM32.269 23.172l0.261 0.149-1.507 2.585-0.261-0.149 1.507-2.584zM35.889 23.664l0.151 0.258-2.61 1.492-0.151-0.258 2.61-1.492zM24.009 25.136l-0.151 0.258-2.61-1.492 0.151-0.258 2.61 1.492zM26.502 25.757l-0.261 0.149-1.507-2.585 0.261-0.149 1.507 2.584zM28.782 26.031h-0.301v-2.984h0.301v2.984zM29.255 26.157l0.261 0.149-1.507 2.584-0.261-0.149 1.507-2.584zM32.875 26.648l0.151 0.258-2.61 1.492-0.151-0.258 2.61-1.492zM36.166 27.374v0.298h-3.014v-0.298h3.014zM23.488 28.741l-0.261 0.149-1.507-2.584 0.261-0.149 1.507 2.584zM25.769 29.016h-0.301v-2.984h0.301v2.984zM26.241 29.141l0.261 0.149-1.507 2.584-0.261-0.149 1.507-2.585zM29.861 29.633l0.151 0.258-2.61 1.492-0.151-0.258 2.61-1.492zM33.153 30.359v0.298h-3.014v-0.298h3.014zM36.064 31.105l-0.151 0.258-2.61-1.492 0.151-0.258 2.61 1.492zM22.755 32h-0.301v-2.984h0.301v2.984z"></path>
    <path fill="#000" style="fill: var(--color1, #000)" opacity="0.04" d="M55.606-3.812h0.301v2.984h-0.301v-2.984zM59.393-3.687l0.261 0.149-1.507 2.584-0.261-0.149 1.507-2.585zM56.38-0.702l0.261 0.149-1.507 2.585-0.261-0.149 1.507-2.584zM63.014-3.195l0.151 0.258-2.61 1.492-0.151-0.258 2.61-1.492zM56.986 2.773l0.151 0.258-2.61 1.492-0.151-0.258 2.61-1.492zM66.305-2.469v0.298h-3.014v-0.298h3.014zM57.264 6.484v0.298h-3.014v-0.298h3.014zM69.217-1.723l-0.151 0.258-2.61-1.492 0.151-0.258 2.61 1.492zM57.161 10.214l-0.151 0.258-2.61-1.492 0.151-0.258 2.61 1.492zM71.71-1.102l-0.261 0.149-1.507-2.584 0.261-0.149 1.507 2.584zM56.641 13.819l-0.261 0.149-1.507-2.584 0.261-0.149 1.507 2.585zM60-0.211l0.151 0.258-2.61 1.492-0.151-0.258 2.61-1.492zM63.291 0.515v0.298h-3.014v-0.298h3.014zM66.203 1.261l-0.151 0.258-2.61-1.492 0.151-0.258 2.61 1.492zM68.696 1.882l-0.261 0.149-1.507-2.585 0.261-0.149 1.507 2.584zM70.977 2.157h-0.301v-2.984h0.301v2.984zM71.449 2.282l0.261 0.149-1.507 2.584-0.261-0.149 1.507-2.584zM60.277 3.5v0.298h-3.014v-0.298h3.014zM63.189 4.246l-0.151 0.258-2.61-1.492 0.151-0.258 2.61 1.492zM65.682 4.866l-0.261 0.149-1.507-2.584 0.261-0.149 1.507 2.584zM67.963 5.141h-0.301v-2.984h0.301v2.984zM68.435 5.266l0.261 0.149-1.507 2.585-0.261-0.149 1.507-2.584zM72.056 5.758l0.151 0.258-2.61 1.492-0.151-0.258 2.61-1.492zM60.175 7.23l-0.151 0.258-2.61-1.492 0.151-0.258 2.61 1.492zM62.668 7.851l-0.261 0.149-1.507-2.584 0.261-0.149 1.507 2.584zM64.949 8.125h-0.301v-2.984h0.301v2.984zM65.421 8.251l0.261 0.149-1.507 2.585-0.261-0.149 1.507-2.585zM69.042 8.742l0.151 0.258-2.61 1.492-0.151-0.258 2.61-1.492zM72.333 9.468v0.298h-3.014v-0.298h3.014zM59.654 10.835l-0.261 0.149-1.507-2.585 0.261-0.149 1.507 2.585zM61.935 11.11h-0.301v-2.984h0.301v2.984zM62.407 11.235l0.261 0.149-1.507 2.584-0.261-0.149 1.507-2.585zM66.028 11.726l0.151 0.258-2.61 1.492-0.151-0.258 2.61-1.492zM69.319 12.453v0.298h-3.014v-0.298h3.014zM72.23 13.199l-0.151 0.258-2.61-1.492 0.151-0.258 2.61 1.492zM58.921 14.094h-0.301v-2.984h0.301v2.984z"></path>
    <path fill="#000" style="fill: var(--color1, #000)" opacity="0.04" d="M55.606 14.094h0.301v2.984h-0.301v-2.984zM59.393 14.219l0.261 0.149-1.507 2.585-0.261-0.149 1.507-2.584zM56.38 17.204l0.261 0.149-1.507 2.584-0.261-0.149 1.507-2.584zM63.014 14.711l0.151 0.258-2.61 1.492-0.151-0.258 2.61-1.492zM56.986 20.68l0.151 0.258-2.61 1.492-0.151-0.258 2.61-1.492zM66.305 15.437v0.298h-3.014v-0.298h3.014zM57.264 24.39v0.298h-3.014v-0.298h3.014zM69.217 16.183l-0.151 0.258-2.61-1.492 0.151-0.258 2.61 1.492zM57.161 28.12l-0.151 0.258-2.61-1.492 0.151-0.258 2.61 1.492zM71.71 16.804l-0.261 0.149-1.507-2.585 0.261-0.149 1.507 2.584zM56.641 31.726l-0.261 0.149-1.507-2.584 0.261-0.149 1.507 2.585zM60 17.695l0.151 0.258-2.61 1.492-0.151-0.258 2.61-1.492zM63.291 18.421v0.298h-3.014v-0.298h3.014zM66.203 19.167l-0.151 0.258-2.61-1.492 0.151-0.258 2.61 1.492zM68.696 19.788l-0.261 0.149-1.507-2.584 0.261-0.149 1.507 2.584zM70.977 20.063h-0.301v-2.984h0.301v2.984zM71.449 20.188l0.261 0.149-1.507 2.584-0.261-0.149 1.507-2.584zM60.277 21.406v0.298h-3.014v-0.298h3.014zM63.189 22.152l-0.151 0.258-2.61-1.492 0.151-0.258 2.61 1.492zM65.682 22.772l-0.261 0.149-1.507-2.584 0.261-0.149 1.507 2.584zM67.963 23.047h-0.301v-2.984h0.301v2.984zM68.435 23.172l0.261 0.149-1.507 2.585-0.261-0.149 1.507-2.584zM72.056 23.664l0.151 0.258-2.61 1.492-0.151-0.258 2.61-1.492zM60.175 25.136l-0.151 0.258-2.61-1.492 0.151-0.258 2.61 1.492zM62.668 25.757l-0.261 0.149-1.507-2.585 0.261-0.149 1.507 2.584zM64.949 26.031h-0.301v-2.984h0.301v2.984zM65.421 26.157l0.261 0.149-1.507 2.584-0.261-0.149 1.507-2.584zM69.042 26.648l0.151 0.258-2.61 1.492-0.151-0.258 2.61-1.492zM72.333 27.374v0.298h-3.014v-0.298h3.014zM59.654 28.741l-0.261 0.149-1.507-2.584 0.261-0.149 1.507 2.584zM61.935 29.016h-0.301v-2.984h0.301v2.984zM62.407 29.141l0.261 0.149-1.507 2.584-0.261-0.149 1.507-2.585zM66.028 29.633l0.151 0.258-2.61 1.492-0.151-0.258 2.61-1.492zM69.319 30.359v0.298h-3.014v-0.298h3.014zM72.23 31.105l-0.151 0.258-2.61-1.492 0.151-0.258 2.61 1.492zM58.921 32h-0.301v-2.984h0.301v2.984z"></path>
    <path fill="#000" style="fill: var(--color1, #000)" opacity="0.04" d="M91.772-3.812h0.301v2.984h-0.301v-2.984zM95.56-3.687l0.261 0.149-1.507 2.584-0.261-0.149 1.507-2.585zM92.546-0.702l0.261 0.149-1.507 2.585-0.261-0.149 1.507-2.584zM99.18-3.195l0.151 0.258-2.61 1.492-0.151-0.258 2.61-1.492zM93.153 2.773l0.151 0.258-2.61 1.492-0.151-0.258 2.61-1.492zM102.472-2.469v0.298h-3.014v-0.298h3.014zM93.43 6.484v0.298h-3.014v-0.298h3.014zM105.383-1.723l-0.151 0.258-2.61-1.492 0.151-0.258 2.61 1.492zM93.328 10.214l-0.151 0.258-2.61-1.492 0.151-0.258 2.61 1.492zM107.876-1.102l-0.261 0.149-1.507-2.584 0.261-0.149 1.507 2.584zM92.807 13.819l-0.261 0.149-1.507-2.584 0.261-0.149 1.507 2.585zM96.167-0.211l0.151 0.258-2.61 1.492-0.151-0.258 2.61-1.492zM99.458 0.515v0.298h-3.014v-0.298h3.014zM102.369 1.261l-0.151 0.258-2.61-1.492 0.151-0.258 2.61 1.492zM104.862 1.882l-0.261 0.149-1.507-2.585 0.261-0.149 1.507 2.584zM107.143 2.157h-0.301v-2.984h0.301v2.984zM107.616 2.282l0.261 0.149-1.507 2.584-0.261-0.149 1.507-2.584zM96.444 3.5v0.298h-3.014v-0.298h3.014zM99.355 4.246l-0.151 0.258-2.61-1.492 0.151-0.258 2.61 1.492zM101.849 4.866l-0.261 0.149-1.507-2.584 0.261-0.149 1.507 2.584zM104.129 5.141h-0.301v-2.984h0.301v2.984zM104.601 5.266l0.261 0.149-1.507 2.585-0.261-0.149 1.507-2.584zM108.222 5.758l0.15 0.258-2.61 1.492-0.151-0.258 2.61-1.492zM96.341 7.23l-0.151 0.258-2.61-1.492 0.151-0.258 2.61 1.492zM98.835 7.851l-0.261 0.149-1.507-2.584 0.261-0.149 1.507 2.584zM101.115 8.125h-0.301v-2.984h0.301v2.984zM101.588 8.251l0.261 0.149-1.507 2.585-0.261-0.149 1.507-2.585zM105.208 8.742l0.151 0.258-2.61 1.492-0.151-0.258 2.61-1.492zM108.499 9.468v0.298h-3.014v-0.298h3.014zM95.821 10.835l-0.261 0.149-1.507-2.585 0.261-0.149 1.507 2.585zM98.101 11.11h-0.301v-2.984h0.301v2.984zM98.574 11.235l0.261 0.149-1.507 2.584-0.261-0.149 1.507-2.585zM102.194 11.726l0.151 0.258-2.61 1.492-0.151-0.258 2.61-1.492zM105.485 12.453v0.298h-3.014v-0.298h3.014zM108.397 13.199l-0.151 0.258-2.61-1.492 0.151-0.258 2.61 1.492zM95.088 14.094h-0.301v-2.984h0.301v2.984z"></path>
    <path fill="#000" style="fill: var(--color1, #000)" opacity="0.04" d="M91.772 14.094h0.301v2.984h-0.301v-2.984zM95.56 14.219l0.261 0.149-1.507 2.585-0.261-0.149 1.507-2.584zM92.546 17.204l0.261 0.149-1.507 2.584-0.261-0.149 1.507-2.584zM99.18 14.711l0.151 0.258-2.61 1.492-0.151-0.258 2.61-1.492zM93.153 20.68l0.151 0.258-2.61 1.492-0.151-0.258 2.61-1.492zM102.472 15.437v0.298h-3.014v-0.298h3.014zM93.43 24.39v0.298h-3.014v-0.298h3.014zM105.383 16.183l-0.151 0.258-2.61-1.492 0.151-0.258 2.61 1.492zM93.328 28.12l-0.151 0.258-2.61-1.492 0.151-0.258 2.61 1.492zM107.876 16.804l-0.261 0.149-1.507-2.585 0.261-0.149 1.507 2.584zM92.807 31.726l-0.261 0.149-1.507-2.584 0.261-0.149 1.507 2.585zM96.167 17.695l0.151 0.258-2.61 1.492-0.151-0.258 2.61-1.492zM99.458 18.421v0.298h-3.014v-0.298h3.014zM102.369 19.167l-0.151 0.258-2.61-1.492 0.151-0.258 2.61 1.492zM104.862 19.788l-0.261 0.149-1.507-2.584 0.261-0.149 1.507 2.584zM107.143 20.063h-0.301v-2.984h0.301v2.984zM107.616 20.188l0.261 0.149-1.507 2.584-0.261-0.149 1.507-2.584zM96.444 21.406v0.298h-3.014v-0.298h3.014zM99.355 22.152l-0.151 0.258-2.61-1.492 0.151-0.258 2.61 1.492zM101.849 22.772l-0.261 0.149-1.507-2.584 0.261-0.149 1.507 2.584zM104.129 23.047h-0.301v-2.984h0.301v2.984zM104.601 23.172l0.261 0.149-1.507 2.585-0.261-0.149 1.507-2.584zM108.222 23.664l0.15 0.258-2.61 1.492-0.151-0.258 2.61-1.492zM96.341 25.136l-0.151 0.258-2.61-1.492 0.151-0.258 2.61 1.492zM98.835 25.757l-0.261 0.149-1.507-2.585 0.261-0.149 1.507 2.584zM101.115 26.031h-0.301v-2.984h0.301v2.984zM101.588 26.157l0.261 0.149-1.507 2.584-0.261-0.149 1.507-2.584zM105.208 26.648l0.151 0.258-2.61 1.492-0.151-0.258 2.61-1.492zM108.499 27.374v0.298h-3.014v-0.298h3.014zM95.821 28.741l-0.261 0.149-1.507-2.584 0.261-0.149 1.507 2.584zM98.101 29.016h-0.301v-2.984h0.301v2.984zM98.574 29.141l0.261 0.149-1.507 2.584-0.261-0.149 1.507-2.585zM102.194 29.633l0.151 0.258-2.61 1.492-0.151-0.258 2.61-1.492zM105.485 30.359v0.298h-3.014v-0.298h3.014zM108.397 31.105l-0.151 0.258-2.61-1.492 0.151-0.258 2.61 1.492zM95.088 32h-0.301v-2.984h0.301v2.984z"></path>
    <path fill="#000" style="fill: var(--color1, #000)" opacity="0.04" d="M127.939-3.812h0.302v2.984h-0.302v-2.984zM131.726-3.687l0.261 0.149-1.507 2.584-0.261-0.149 1.507-2.585zM128.712-0.702l0.262 0.149-1.508 2.585-0.261-0.149 1.507-2.584zM135.347-3.195l0.15 0.258-2.609 1.492-0.151-0.258 2.61-1.492zM129.319 2.773l0.151 0.258-2.61 1.492-0.15-0.258 2.609-1.492zM138.638-2.469v0.298h-3.014v-0.298h3.014zM129.597 6.484v0.298h-3.014v-0.298h3.014zM141.55-1.723l-0.15 0.258-2.61-1.492 0.15-0.258 2.61 1.492zM129.494 10.214l-0.15 0.258-2.61-1.492 0.151-0.258 2.609 1.492zM144.043-1.102l-0.261 0.149-1.508-2.584 0.262-0.149 1.507 2.584zM128.974 13.819l-0.262 0.149-1.507-2.584 0.261-0.149 1.508 2.585zM132.333-0.211l0.15 0.258-2.609 1.492-0.15-0.258 2.609-1.492zM135.624 0.515v0.298h-3.014v-0.298h3.014zM138.535 1.261l-0.15 0.258-2.61-1.492 0.151-0.258 2.609 1.492zM141.029 1.882l-0.261 0.149-1.507-2.585 0.261-0.149 1.507 2.584zM143.31 2.157h-0.302v-2.984h0.302v2.984zM143.782 2.282l0.261 0.149-1.507 2.584-0.262-0.149 1.508-2.584zM132.61 3.5v0.298h-3.013v-0.298h3.013zM135.522 4.246l-0.151 0.258-2.609-1.492 0.15-0.258 2.61 1.492zM138.016 4.866l-0.262 0.149-1.507-2.584 0.261-0.149 1.508 2.584zM140.295 5.141h-0.301v-2.984h0.301v2.984zM140.768 5.266l0.261 0.149-1.507 2.585-0.261-0.149 1.507-2.584zM144.389 5.758l0.15 0.258-2.609 1.492-0.151-0.258 2.61-1.492zM132.508 7.23l-0.15 0.258-2.61-1.492 0.15-0.258 2.61 1.492zM135.001 7.851l-0.261 0.149-1.508-2.584 0.262-0.149 1.507 2.584zM137.282 8.125h-0.302v-2.984h0.302v2.984zM137.754 8.251l0.262 0.149-1.508 2.585-0.261-0.149 1.507-2.585zM141.375 8.742l0.15 0.258-2.609 1.492-0.15-0.258 2.609-1.492zM144.666 9.468v0.298h-3.014v-0.298h3.014zM131.987 10.835l-0.261 0.149-1.507-2.585 0.261-0.149 1.507 2.585zM134.268 11.11h-0.302v-2.984h0.302v2.984zM134.74 11.235l0.261 0.149-1.507 2.584-0.262-0.149 1.508-2.585zM138.36 11.726l0.151 0.258-2.61 1.492-0.15-0.258 2.609-1.492zM141.652 12.453v0.298h-3.013v-0.298h3.013zM144.564 13.199l-0.151 0.258-2.609-1.492 0.15-0.258 2.61 1.492zM131.254 14.094h-0.301v-2.984h0.301v2.984z"></path>
    <path fill="#000" style="fill: var(--color1, #000)" opacity="0.04" d="M127.939 14.094h0.302v2.984h-0.302v-2.984zM131.726 14.219l0.261 0.149-1.507 2.585-0.261-0.149 1.507-2.584zM128.712 17.204l0.262 0.149-1.508 2.584-0.261-0.149 1.507-2.584zM135.347 14.711l0.15 0.258-2.609 1.492-0.151-0.258 2.61-1.492zM129.319 20.68l0.151 0.258-2.61 1.492-0.15-0.258 2.609-1.492zM138.638 15.437v0.298h-3.014v-0.298h3.014zM129.597 24.39v0.298h-3.014v-0.298h3.014zM141.55 16.183l-0.15 0.258-2.61-1.492 0.15-0.258 2.61 1.492zM129.494 28.12l-0.15 0.258-2.61-1.492 0.151-0.258 2.609 1.492zM144.043 16.804l-0.261 0.149-1.508-2.585 0.262-0.149 1.507 2.584zM128.974 31.726l-0.262 0.149-1.507-2.584 0.261-0.149 1.508 2.585zM132.333 17.695l0.15 0.258-2.609 1.492-0.15-0.258 2.609-1.492zM135.624 18.421v0.298h-3.014v-0.298h3.014zM138.535 19.167l-0.15 0.258-2.61-1.492 0.151-0.258 2.609 1.492zM141.029 19.788l-0.261 0.149-1.507-2.584 0.261-0.149 1.507 2.584zM143.31 20.063h-0.302v-2.984h0.302v2.984zM143.782 20.188l0.261 0.149-1.507 2.584-0.262-0.149 1.508-2.584zM132.61 21.406v0.298h-3.013v-0.298h3.013zM135.522 22.152l-0.151 0.258-2.609-1.492 0.15-0.258 2.61 1.492zM138.016 22.772l-0.262 0.149-1.507-2.584 0.261-0.149 1.508 2.584zM140.295 23.047h-0.301v-2.984h0.301v2.984zM140.768 23.172l0.261 0.149-1.507 2.585-0.261-0.149 1.507-2.584zM144.389 23.664l0.15 0.258-2.609 1.492-0.151-0.258 2.61-1.492zM132.508 25.136l-0.15 0.258-2.61-1.492 0.15-0.258 2.61 1.492zM135.001 25.757l-0.261 0.149-1.508-2.585 0.262-0.149 1.507 2.584zM137.282 26.031h-0.302v-2.984h0.302v2.984zM137.754 26.157l0.262 0.149-1.508 2.584-0.261-0.149 1.507-2.584zM141.375 26.648l0.15 0.258-2.609 1.492-0.15-0.258 2.609-1.492zM144.666 27.374v0.298h-3.014v-0.298h3.014zM131.987 28.741l-0.261 0.149-1.507-2.584 0.261-0.149 1.507 2.584zM134.268 29.016h-0.302v-2.984h0.302v2.984zM134.74 29.141l0.261 0.149-1.507 2.584-0.262-0.149 1.508-2.585zM138.36 29.633l0.151 0.258-2.61 1.492-0.15-0.258 2.609-1.492zM141.652 30.359v0.298h-3.013v-0.298h3.013zM144.564 31.105l-0.151 0.258-2.609-1.492 0.15-0.258 2.61 1.492zM131.254 32h-0.301v-2.984h0.301v2.984z"></path>
    <path fill="#000" style="fill: var(--color1, #000)" opacity="0.04" d="M164.105-3.812h0.302v2.984h-0.302v-2.984zM167.893-3.687l0.261 0.149-1.507 2.584-0.261-0.149 1.507-2.585zM164.878-0.702l0.262 0.149-1.508 2.585-0.261-0.149 1.507-2.584zM171.514-3.195l0.15 0.258-2.609 1.492-0.151-0.258 2.61-1.492zM165.485 2.773l0.151 0.258-2.61 1.492-0.15-0.258 2.609-1.492zM174.805-2.469v0.298h-3.014v-0.298h3.014zM165.763 6.484v0.298h-3.014v-0.298h3.014zM177.716-1.723l-0.15 0.258-2.61-1.492 0.15-0.258 2.61 1.492zM165.66 10.214l-0.15 0.258-2.61-1.492 0.151-0.258 2.609 1.492zM180.209-1.102l-0.261 0.149-1.508-2.584 0.262-0.149 1.507 2.584zM165.14 13.819l-0.262 0.149-1.507-2.584 0.261-0.149 1.508 2.585zM168.499-0.211l0.15 0.258-2.609 1.492-0.15-0.258 2.609-1.492zM171.791 0.515v0.298h-3.014v-0.298h3.014zM174.702 1.261l-0.15 0.258-2.61-1.492 0.151-0.258 2.609 1.492zM177.195 1.882l-0.261 0.149-1.507-2.585 0.261-0.149 1.507 2.584zM179.476 2.157h-0.302v-2.984h0.302v2.984zM179.948 2.282l0.261 0.149-1.507 2.584-0.262-0.149 1.508-2.584zM168.776 3.5v0.298h-3.013v-0.298h3.013zM171.689 4.246l-0.151 0.258-2.609-1.492 0.15-0.258 2.61 1.492zM174.182 4.866l-0.262 0.149-1.507-2.584 0.261-0.149 1.508 2.584zM176.462 5.141h-0.301v-2.984h0.301v2.984zM176.934 5.266l0.261 0.149-1.507 2.585-0.261-0.149 1.507-2.584zM180.555 5.758l0.15 0.258-2.609 1.492-0.151-0.258 2.61-1.492zM168.674 7.23l-0.15 0.258-2.61-1.492 0.15-0.258 2.61 1.492zM171.168 7.851l-0.261 0.149-1.508-2.584 0.262-0.149 1.507 2.584zM173.449 8.125h-0.302v-2.984h0.302v2.984zM173.92 8.251l0.262 0.149-1.508 2.585-0.261-0.149 1.507-2.585zM177.541 8.742l0.15 0.258-2.609 1.492-0.15-0.258 2.609-1.492zM180.832 9.468v0.298h-3.014v-0.298h3.014zM168.154 10.835l-0.261 0.149-1.507-2.585 0.261-0.149 1.507 2.585zM170.434 11.11h-0.302v-2.984h0.302v2.984zM170.907 11.235l0.261 0.149-1.507 2.584-0.262-0.149 1.508-2.585zM174.527 11.726l0.151 0.258-2.61 1.492-0.15-0.258 2.609-1.492zM177.818 12.453v0.298h-3.013v-0.298h3.013zM180.73 13.199l-0.151 0.258-2.609-1.492 0.15-0.258 2.61 1.492zM167.42 14.094h-0.301v-2.984h0.301v2.984z"></path>
    <path fill="#000" style="fill: var(--color1, #000)" opacity="0.04" d="M164.105 14.094h0.302v2.984h-0.302v-2.984zM167.893 14.219l0.261 0.149-1.507 2.585-0.261-0.149 1.507-2.584zM164.878 17.204l0.262 0.149-1.508 2.584-0.261-0.149 1.507-2.584zM171.514 14.711l0.15 0.258-2.609 1.492-0.151-0.258 2.61-1.492zM165.485 20.68l0.151 0.258-2.61 1.492-0.15-0.258 2.609-1.492zM174.805 15.437v0.298h-3.014v-0.298h3.014zM165.763 24.39v0.298h-3.014v-0.298h3.014zM177.716 16.183l-0.15 0.258-2.61-1.492 0.15-0.258 2.61 1.492zM165.66 28.12l-0.15 0.258-2.61-1.492 0.151-0.258 2.609 1.492zM180.209 16.804l-0.261 0.149-1.508-2.585 0.262-0.149 1.507 2.584zM165.14 31.726l-0.262 0.149-1.507-2.584 0.261-0.149 1.508 2.585zM168.499 17.695l0.15 0.258-2.609 1.492-0.15-0.258 2.609-1.492zM171.791 18.421v0.298h-3.014v-0.298h3.014zM174.702 19.167l-0.15 0.258-2.61-1.492 0.151-0.258 2.609 1.492zM177.195 19.788l-0.261 0.149-1.507-2.584 0.261-0.149 1.507 2.584zM179.476 20.063h-0.302v-2.984h0.302v2.984zM179.948 20.188l0.261 0.149-1.507 2.584-0.262-0.149 1.508-2.584zM168.776 21.406v0.298h-3.013v-0.298h3.013zM171.689 22.152l-0.151 0.258-2.609-1.492 0.15-0.258 2.61 1.492zM174.182 22.772l-0.262 0.149-1.507-2.584 0.261-0.149 1.508 2.584zM176.462 23.047h-0.301v-2.984h0.301v2.984zM176.934 23.172l0.261 0.149-1.507 2.585-0.261-0.149 1.507-2.584zM180.555 23.664l0.15 0.258-2.609 1.492-0.151-0.258 2.61-1.492zM168.674 25.136l-0.15 0.258-2.61-1.492 0.15-0.258 2.61 1.492zM171.168 25.757l-0.261 0.149-1.508-2.585 0.262-0.149 1.507 2.584zM173.449 26.031h-0.302v-2.984h0.302v2.984zM173.92 26.157l0.262 0.149-1.508 2.584-0.261-0.149 1.507-2.584zM177.541 26.648l0.15 0.258-2.609 1.492-0.15-0.258 2.609-1.492zM180.832 27.374v0.298h-3.014v-0.298h3.014zM168.154 28.741l-0.261 0.149-1.507-2.584 0.261-0.149 1.507 2.584zM170.434 29.016h-0.302v-2.984h0.302v2.984zM170.907 29.141l0.261 0.149-1.507 2.584-0.262-0.149 1.508-2.585zM174.527 29.633l0.151 0.258-2.61 1.492-0.15-0.258 2.609-1.492zM177.818 30.359v0.298h-3.013v-0.298h3.013zM180.73 31.105l-0.151 0.258-2.609-1.492 0.15-0.258 2.61 1.492zM167.42 32h-0.301v-2.984h0.301v2.984z"></path>
    <path fill="#000" style="fill: var(--color1, #000)" opacity="0.035" d="M182.187-3.812h0.302v2.984h-0.302v-2.984zM185.973-3.687l0.261 0.149-1.506 2.585-0.261-0.149 1.506-2.585zM182.961-0.702l0.261 0.149-1.506 2.584-0.261-0.149 1.506-2.584zM189.591-3.195l0.15 0.258-2.608 1.492-0.15-0.258 2.608-1.492zM183.567 2.773l0.15 0.258-2.608 1.492-0.15-0.258 2.608-1.492zM192.881-2.469v0.298h-3.012v-0.298h3.012zM183.844 6.484v0.298h-3.012v-0.298h3.012zM195.791-1.723l-0.151 0.258-2.608-1.492 0.15-0.258 2.609 1.492zM183.742 10.214l-0.151 0.258-2.608-1.492 0.15-0.258 2.609 1.492zM198.282-1.102l-0.261 0.149-1.506-2.585 0.261-0.149 1.506 2.584zM183.221 13.819l-0.261 0.149-1.506-2.584 0.261-0.149 1.506 2.585zM186.579-0.211l0.15 0.258-2.608 1.492-0.15-0.258 2.608-1.492zM189.868 0.515v0.298h-3.012v-0.298h3.012zM192.779 1.261l-0.151 0.258-2.608-1.492 0.151-0.258 2.608 1.492zM195.27 1.882l-0.261 0.149-1.506-2.584 0.261-0.149 1.506 2.584zM197.55 2.157h-0.302v-2.984h0.302v2.984zM198.021 2.282l0.261 0.149-1.506 2.584-0.261-0.149 1.506-2.584zM186.856 3.5v0.298h-3.012v-0.298h3.012zM189.766 4.246l-0.151 0.258-2.608-1.492 0.151-0.258 2.608 1.492zM192.258 4.866l-0.261 0.149-1.506-2.584 0.261-0.149 1.506 2.584zM194.537 5.141h-0.302v-2.984h0.302v2.984zM195.009 5.266l0.261 0.149-1.506 2.585-0.261-0.149 1.506-2.584zM198.628 5.758l0.15 0.258-2.608 1.492-0.15-0.258 2.608-1.492zM186.754 7.23l-0.151 0.258-2.608-1.492 0.15-0.258 2.609 1.492zM189.246 7.851l-0.261 0.149-1.506-2.584 0.261-0.149 1.506 2.584zM191.525 8.125h-0.302v-2.984h0.302v2.984zM191.997 8.251l0.261 0.149-1.506 2.584-0.261-0.149 1.506-2.585zM195.616 8.742l0.15 0.258-2.608 1.492-0.15-0.258 2.608-1.492zM198.905 9.468v0.298h-3.012v-0.298h3.012zM186.234 10.835l-0.261 0.149-1.506-2.584 0.261-0.149 1.506 2.585zM188.513 11.11h-0.302v-2.984h0.302v2.984zM188.985 11.235l0.261 0.149-1.506 2.584-0.261-0.149 1.506-2.585zM192.603 11.726l0.15 0.258-2.608 1.492-0.15-0.258 2.608-1.492zM195.893 12.453v0.298h-3.012v-0.298h3.012zM198.803 13.199l-0.151 0.258-2.608-1.492 0.15-0.258 2.609 1.492zM185.501 14.094h-0.302v-2.984h0.302v2.984z"></path>
    <path fill="#000" style="fill: var(--color1, #000)" opacity="0.035" d="M182.187 14.094h0.302v2.984h-0.302v-2.984zM185.973 14.219l0.261 0.149-1.506 2.585-0.261-0.149 1.506-2.584zM182.961 17.204l0.261 0.149-1.506 2.584-0.261-0.149 1.506-2.584zM189.591 14.711l0.15 0.258-2.608 1.492-0.15-0.258 2.608-1.492zM183.567 20.68l0.15 0.258-2.608 1.492-0.15-0.258 2.608-1.492zM192.881 15.437v0.298h-3.012v-0.298h3.012zM183.844 24.39v0.298h-3.012v-0.298h3.012zM195.791 16.183l-0.151 0.258-2.608-1.492 0.15-0.258 2.609 1.492zM183.742 28.12l-0.151 0.258-2.608-1.492 0.15-0.258 2.609 1.492zM198.282 16.804l-0.261 0.149-1.506-2.585 0.261-0.149 1.506 2.584zM183.221 31.725l-0.261 0.149-1.506-2.584 0.261-0.149 1.506 2.584zM186.579 17.695l0.15 0.258-2.608 1.492-0.15-0.258 2.608-1.492zM189.868 18.421v0.298h-3.012v-0.298h3.012zM192.779 19.167l-0.151 0.258-2.608-1.492 0.151-0.258 2.608 1.492zM195.27 19.788l-0.261 0.149-1.506-2.584 0.261-0.149 1.506 2.584zM197.55 20.063h-0.302v-2.984h0.302v2.984zM198.021 20.188l0.261 0.149-1.506 2.584-0.261-0.149 1.506-2.584zM186.856 21.406v0.298h-3.012v-0.298h3.012zM189.766 22.152l-0.151 0.258-2.608-1.492 0.151-0.258 2.608 1.492zM192.258 22.772l-0.261 0.149-1.506-2.584 0.261-0.149 1.506 2.584zM194.537 23.047h-0.302v-2.984h0.302v2.984zM195.009 23.172l0.261 0.149-1.506 2.585-0.261-0.149 1.506-2.584zM198.628 23.664l0.15 0.258-2.608 1.492-0.15-0.258 2.608-1.492zM186.754 25.136l-0.151 0.258-2.608-1.492 0.15-0.258 2.609 1.492zM189.246 25.757l-0.261 0.149-1.506-2.585 0.261-0.149 1.506 2.584zM191.525 26.031h-0.302v-2.984h0.302v2.984zM191.997 26.157l0.261 0.149-1.506 2.584-0.261-0.149 1.506-2.584zM195.616 26.648l0.15 0.258-2.608 1.492-0.15-0.258 2.608-1.492zM198.905 27.374v0.298h-3.012v-0.298h3.012zM186.234 28.741l-0.261 0.149-1.506-2.584 0.261-0.149 1.506 2.584zM188.513 29.016h-0.302v-2.984h0.302v2.984zM188.985 29.141l0.261 0.149-1.506 2.584-0.261-0.149 1.506-2.584zM192.603 29.633l0.15 0.258-2.608 1.492-0.15-0.258 2.608-1.492zM195.893 30.359v0.298h-3.012v-0.298h3.012zM198.803 31.105l-0.151 0.258-2.608-1.492 0.15-0.258 2.609 1.492zM185.501 32h-0.302v-2.984h0.302v2.984z"></path>
    <path fill="#000" style="fill: var(--color1, #000)" opacity="0.035" d="M200.26-3.812h0.302v2.984h-0.302v-2.984zM204.045-3.687l0.261 0.149-1.506 2.584-0.261-0.149 1.506-2.585zM201.033-0.702l0.261 0.149-1.506 2.585-0.261-0.149 1.506-2.585zM207.664-3.195l0.15 0.258-2.608 1.492-0.15-0.258 2.608-1.492zM201.64 2.773l0.15 0.258-2.608 1.492-0.15-0.258 2.608-1.492zM210.953-2.469v0.298h-3.012v-0.298h3.012zM201.917 6.484v0.298h-3.012v-0.298h3.012zM213.863-1.723l-0.151 0.258-2.608-1.492 0.151-0.258 2.608 1.492zM201.815 10.214l-0.151 0.258-2.608-1.492 0.15-0.258 2.609 1.492zM216.354-1.102l-0.261 0.149-1.506-2.584 0.261-0.149 1.506 2.584zM201.294 13.819l-0.261 0.149-1.506-2.584 0.261-0.149 1.506 2.585zM204.652-0.211l0.15 0.258-2.608 1.492-0.15-0.258 2.608-1.492zM207.941 0.515v0.298h-3.012v-0.298h3.012zM210.851 1.261l-0.151 0.258-2.608-1.492 0.151-0.258 2.608 1.492zM213.342 1.882l-0.261 0.149-1.506-2.585 0.261-0.149 1.506 2.585zM215.622 2.157h-0.302v-2.984h0.302v2.984zM216.093 2.282l0.261 0.149-1.506 2.584-0.261-0.149 1.506-2.584zM204.929 3.5v0.298h-3.012v-0.298h3.012zM207.839 4.246l-0.151 0.258-2.608-1.492 0.151-0.258 2.608 1.492zM210.33 4.866l-0.261 0.149-1.506-2.584 0.261-0.149 1.506 2.584zM212.61 5.141h-0.302v-2.984h0.302v2.984zM213.081 5.266l0.261 0.149-1.506 2.585-0.261-0.149 1.506-2.584zM216.7 5.758l0.15 0.258-2.608 1.492-0.15-0.258 2.608-1.492zM204.827 7.23l-0.151 0.258-2.608-1.492 0.15-0.258 2.609 1.492zM207.318 7.851l-0.261 0.149-1.506-2.584 0.261-0.149 1.506 2.584zM209.598 8.125h-0.302v-2.984h0.302v2.984zM210.069 8.251l0.261 0.149-1.506 2.584-0.261-0.149 1.506-2.585zM213.688 8.742l0.15 0.258-2.608 1.492-0.15-0.258 2.608-1.492zM216.977 9.468v0.298h-3.012v-0.298h3.012zM204.306 10.835l-0.261 0.149-1.506-2.584 0.261-0.149 1.506 2.585zM206.586 11.11h-0.302v-2.984h0.302v2.984zM207.057 11.235l0.261 0.149-1.506 2.584-0.261-0.149 1.506-2.585zM210.676 11.726l0.15 0.258-2.608 1.492-0.15-0.258 2.608-1.492zM213.965 12.453v0.298h-3.012v-0.298h3.012zM216.875 13.199l-0.151 0.258-2.608-1.492 0.151-0.258 2.608 1.492zM203.574 14.094h-0.302v-2.984h0.302v2.984z"></path>
    <path fill="#000" style="fill: var(--color1, #000)" opacity="0.035" d="M200.26 14.094h0.302v2.984h-0.302v-2.984zM204.045 14.219l0.261 0.149-1.506 2.585-0.261-0.149 1.506-2.584zM201.033 17.204l0.261 0.149-1.506 2.584-0.261-0.149 1.506-2.584zM207.664 14.711l0.15 0.258-2.608 1.492-0.15-0.258 2.608-1.492zM201.64 20.68l0.15 0.258-2.608 1.492-0.15-0.258 2.608-1.492zM210.953 15.437v0.298h-3.012v-0.298h3.012zM201.917 24.39v0.298h-3.012v-0.298h3.012zM213.863 16.183l-0.151 0.258-2.608-1.492 0.151-0.258 2.608 1.492zM201.815 28.12l-0.151 0.258-2.608-1.492 0.15-0.258 2.609 1.492zM216.354 16.804l-0.261 0.149-1.506-2.585 0.261-0.149 1.506 2.584zM201.294 31.725l-0.261 0.149-1.506-2.584 0.261-0.149 1.506 2.584zM204.652 17.695l0.15 0.258-2.608 1.492-0.15-0.258 2.608-1.492zM207.941 18.421v0.298h-3.012v-0.298h3.012zM210.851 19.167l-0.151 0.258-2.608-1.492 0.151-0.258 2.608 1.492zM213.342 19.788l-0.261 0.149-1.506-2.584 0.261-0.149 1.506 2.584zM215.622 20.063h-0.302v-2.984h0.302v2.984zM216.093 20.188l0.261 0.149-1.506 2.584-0.261-0.149 1.506-2.584zM204.929 21.406v0.298h-3.012v-0.298h3.012zM207.839 22.152l-0.151 0.258-2.608-1.492 0.151-0.258 2.608 1.492zM210.33 22.772l-0.261 0.149-1.506-2.584 0.261-0.149 1.506 2.584zM212.61 23.047h-0.302v-2.984h0.302v2.984zM213.081 23.172l0.261 0.149-1.506 2.585-0.261-0.149 1.506-2.584zM216.7 23.664l0.15 0.258-2.608 1.492-0.15-0.258 2.608-1.492zM204.827 25.136l-0.151 0.258-2.608-1.492 0.15-0.258 2.609 1.492zM207.318 25.757l-0.261 0.149-1.506-2.585 0.261-0.149 1.506 2.584zM209.598 26.031h-0.302v-2.984h0.302v2.984zM210.069 26.157l0.261 0.149-1.506 2.584-0.261-0.149 1.506-2.584zM213.688 26.648l0.15 0.258-2.608 1.492-0.15-0.258 2.608-1.492zM216.977 27.374v0.298h-3.012v-0.298h3.012zM204.306 28.741l-0.261 0.149-1.506-2.584 0.261-0.149 1.506 2.584zM206.586 29.016h-0.302v-2.984h0.302v2.984zM207.057 29.141l0.261 0.149-1.506 2.584-0.261-0.149 1.506-2.584zM210.676 29.633l0.15 0.258-2.608 1.492-0.15-0.258 2.608-1.492zM213.965 30.359v0.298h-3.012v-0.298h3.012zM216.875 31.105l-0.151 0.258-2.608-1.492 0.151-0.258 2.608 1.492zM203.574 32h-0.302v-2.984h0.302v2.984z"></path>
  </symbol>
</svg>
